<?xml version="1.0" encoding="UTF-8" standalone="no"?>
<!-- Created with Inkscape (http://www.inkscape.org/) -->
<svg xmlns:dc="http://purl.org/dc/elements/1.1/" xmlns:cc="http://creativecommons.org/ns#" xmlns:rdf="http://www.w3.org/1999/02/22-rdf-syntax-ns#" xmlns:svg="http://www.w3.org/2000/svg" xmlns="http://www.w3.org/2000/svg" xmlns:sodipodi="http://sodipodi.sourceforge.net/DTD/sodipodi-0.dtd" xmlns:inkscape="http://www.inkscape.org/namespaces/inkscape" width="264.00266mm" height="68.623451mm" viewBox="0 0 264.00266 68.623451" version="1.1" id="svg944" inkscape:version="0.92.4 (5da689c313, 2019-01-14)" sodipodi:docname="daher.svg">
  <defs id="defs938">
    <clipPath clipPathUnits="userSpaceOnUse" id="clipPath38">
      <path d="M 0,0 H 694.488 V 765.354 H 0 Z" id="path36" inkscape:connector-curvature="0"/>
    </clipPath>
  </defs>
  <sodipodi:namedview id="base" pagecolor="#ffffff" bordercolor="#666666" borderopacity="1.0" inkscape:pageopacity="0.0" inkscape:pageshadow="2" inkscape:zoom="0.7" inkscape:cx="781.28484" inkscape:cy="0.89609992" inkscape:document-units="mm" inkscape:current-layer="layer1" showgrid="false" inkscape:pagecheckerboard="true" fit-margin-top="0" fit-margin-left="0" fit-margin-right="0" fit-margin-bottom="0" inkscape:window-width="1920" inkscape:window-height="1001" inkscape:window-x="-9" inkscape:window-y="-9" inkscape:window-maximized="1"/>
  <metadata id="metadata941">
    <rdf:RDF>
      <cc:Work rdf:about="">
        <dc:format>image/svg+xml</dc:format>
        <dc:type rdf:resource="http://purl.org/dc/dcmitype/StillImage"/>
        <dc:title/>
      </cc:Work>
    </rdf:RDF>
  </metadata>
  <g inkscape:label="Calque 1" inkscape:groupmode="layer" id="layer1" transform="translate(26.167997,-137.20017)">
    <g transform="matrix(1.8013958,0,0,-1.8013958,-519.691,1321.8647)" id="g910">
      <g transform="translate(322.1983,646.7966)" id="g20">
        <path inkscape:connector-curvature="0" id="path22" style="fill:#1e365d;fill-opacity:1;fill-rule:nonzero;stroke:none" d="m 0,0 h 5.489 l 11.597,-27.254 h -6.223 l -2.474,6.068 H -3.055 l -2.474,-6.068 h -6.069 z m 6.262,-15.927 -3.594,8.776 -3.597,-8.776 z"/>
      </g>
      <g transform="translate(342.0354,646.7984)" id="g24">
        <path inkscape:connector-curvature="0" id="path26" style="fill:#1e365d;fill-opacity:1;fill-rule:nonzero;stroke:none" d="M 0,0 H 5.953 V -10.774 H 16.931 V 0 h 5.954 v -27.233 h -5.954 v 10.932 H 5.953 V -27.233 H 0 Z"/>
      </g>
      <g transform="translate(371.0326,646.7984)" id="g28">
        <path inkscape:connector-curvature="0" id="path30" style="fill:#1e365d;fill-opacity:1;fill-rule:nonzero;stroke:none" d="M 0,0 H 20.411 V -5.333 H 5.915 v -5.53 h 12.756 v -5.334 H 5.915 v -5.723 h 14.689 v -5.336 H 0 Z"/>
      </g>
      <g id="g32">
        <g clip-path="url(#clipPath38)" id="g34">
          <g transform="translate(397.1345,646.7984)" id="g40">
            <path inkscape:connector-curvature="0" id="path42" style="fill:#1e365d;fill-opacity:1;fill-rule:nonzero;stroke:none" d="m 0,0 h 12.371 c 3.439,0 6.106,-0.973 7.885,-2.764 1.508,-1.518 2.319,-3.659 2.319,-6.231 v -0.076 c 0,-4.399 -2.357,-7.165 -5.798,-8.45 l 6.61,-9.735 h -6.958 l -5.798,8.722 H 10.552 5.953 v -8.722 H 0 Z m 11.983,-13.239 c 2.9,0 4.562,1.559 4.562,3.856 v 0.079 c 0,2.569 -1.778,3.892 -4.678,3.892 H 5.953 v -7.827 z"/>
          </g>
        </g>
      </g>
      <path inkscape:connector-curvature="0" id="path44" style="fill:#ed153e;fill-opacity:1;fill-rule:nonzero;stroke:none" d="m 273.967,641.394 h 5.966 v 5.413 h -5.966 z"/>
      <path inkscape:connector-curvature="0" id="path46" style="fill:#ed153e;fill-opacity:1;fill-rule:nonzero;stroke:none" d="m 285.9,652.224 h 5.966 v 5.413 H 285.9 Z"/>
      <path inkscape:connector-curvature="0" id="path48" style="fill:#ed153e;fill-opacity:1;fill-rule:nonzero;stroke:none" d="m 273.967,652.224 h 5.966 v 5.413 h -5.966 z"/>
      <g transform="translate(296.4665,646.8076)" id="g58">
        <path inkscape:connector-curvature="0" id="path60" style="fill:#1e365d;fill-opacity:1;fill-rule:nonzero;stroke:none" d="M 0,0 H -10.567 V -5.413 H 0 c 4.872,0 8.157,-3.388 8.157,-8.218 v -0.079 c 0,-4.83 -3.285,-8.141 -8.157,-8.141 h -4.6 v 11.024 h -5.967 V -27.265 H 0 c 8.505,0 14.382,5.959 14.382,13.634 v 0.077 C 14.382,-5.88 8.505,0 0,0"/>
      </g>
    </g>
  </g>
</svg>